Coordinates
version=1
nRows=22
nColumns=24
inDegrees=yes

Units are S.I. units (second, meters, Newtons, ...)
Angles are in degrees.

endheader
time	pelvis_tilt	pelvis_list	pelvis_rotation	pelvis_tx	pelvis_ty	pelvis_tz	hip_flexion_r	hip_adduction_r	hip_rotation_r	knee_angle_r	ankle_angle_r	subtalar_angle_r	mtp_angle_r	hip_flexion_l	hip_adduction_l	hip_rotation_l	knee_angle_l	ankle_angle_l	subtalar_angle_l	mtp_angle_l	lumbar_extension	lumbar_bending	lumbar_rotation
     15.97500000	   -130.74137680	   -115.60843393	    -28.17299492	      0.13262969	      0.66652732	      0.24966968	    -17.17536450	     70.23987941	    -24.87340639	     94.49904945	   -169.26828815	    -71.90569002	      0.00000000	    -34.64836366	      2.42621957	    163.43575674	    -34.73991356	    -37.72601250	     36.43559166	      0.00000000	     82.55045454	     -4.37865173	   -209.02708371
     15.98333333	   -130.73811882	   -115.60796962	    -28.17237674	      0.13263010	      0.66652030	      0.24967165	    -17.17709698	     70.24094169	    -24.87243976	     94.49765234	   -169.26771896	    -71.90589397	      0.00000000	    -34.64858864	      2.42670381	    163.44114977	    -34.74250082	    -37.72886254	     36.43679700	      0.00000000	     82.55027437	     -4.37522474	   -209.02869205
     15.99166667	   -130.73801451	   -115.60684033	    -28.17062370	      0.13262156	      0.66651436	      0.24966181	    -17.17784526	     70.23913771	    -24.87053582	     94.49225401	   -169.26745351	    -71.90605173	      0.00000000	    -34.64929987	      2.42622084	    163.44181689	    -34.74562574	    -37.72938173	     36.43740976	      0.00000000	     82.54973996	     -4.37749508	   -209.02752219
     16.00000000	   -130.73752175	   -115.60697030	    -28.17002281	      0.13261370	      0.66651025	      0.24966110	    -17.17807534	     70.23859258	    -24.86975254	     94.49021683	   -169.26746285	    -71.90602986	      0.00000000	    -34.64927049	      2.42690365	    163.44232482	    -34.74609232	    -37.72955882	     36.43774841	      0.00000000	     82.54853804	     -4.37860154	   -209.02712822
     16.00833333	   -130.73595756	   -115.60886625	    -28.16807911	      0.13261242	      0.66651012	      0.24965490	    -17.17861911	     70.23458875	    -24.86567343	     94.48327972	   -169.26734840	    -71.90591959	      0.00000000	    -34.64883599	      2.42368401	    163.44438548	    -34.74651860	    -37.73171738	     36.43892422	      0.00000000	     82.54798880	     -4.38000985	   -209.02630470
     16.01666667	   -130.73470947	   -115.60900538	    -28.16765988	      0.13261654	      0.66650490	      0.24965969	    -17.17992058	     70.23628410	    -24.86522259	     94.48073239	   -169.26680894	    -71.90633497	      0.00000000	    -34.64816919	      2.42518635	    163.44684409	    -34.74669797	    -37.73300899	     36.43895053	      0.00000000	     82.54780996	     -4.37726734	   -209.02626282
     16.02500000	   -130.73413896	   -115.60989126	    -28.16743848	      0.13261771	      0.66649503	      0.24966039	    -17.18100097	     70.23596808	    -24.86593565	     94.48007573	   -169.26680882	    -71.90632405	      0.00000000	    -34.64754862	      2.42661084	    163.44736395	    -34.74683391	    -37.73311674	     36.43894543	      0.00000000	     82.54737879	     -4.37740114	   -209.02635018
     16.03333333	   -130.73396317	   -115.60950790	    -28.16781326	      0.13261998	      0.66648403	      0.24965637	    -17.18304607	     70.23399042	    -24.86628516	     94.47576387	   -169.26736229	    -71.90580484	      0.00000000	    -34.64585754	      2.42645772	    163.44718663	    -34.74703095	    -37.73359702	     36.43918072	      0.00000000	     82.54774176	     -4.37794204	   -209.02797256
     16.04166667	   -130.73401722	   -115.60996767	    -28.16785479	      0.13262544	      0.66648699	      0.24964846	    -17.18324857	     70.23145062	    -24.86536294	     94.46961872	   -169.26762677	    -71.90596119	      0.00000000	    -34.64433909	      2.42578759	    163.44565101	    -34.74534988	    -37.73350625	     36.43896632	      0.00000000	     82.54663104	     -4.37773691	   -209.03101423
     16.05000000	   -130.73223993	   -115.61000982	    -28.16826985	      0.13261587	      0.66649190	      0.24964857	    -17.18507900	     70.23152516	    -24.86754179	     94.47280565	   -169.26744765	    -71.90627410	      0.00000000	    -34.64374975	      2.42774324	    163.44511317	    -34.74364408	    -37.73383015	     36.43777326	      0.00000000	     82.54647884	     -4.37451839	   -209.03592048
     16.05833333	   -130.73192870	   -115.60971648	    -28.16922094	      0.13260699	      0.66648800	      0.24964356	    -17.18590837	     70.22909900	    -24.86799841	     94.47038574	   -169.26741098	    -71.90653493	      0.00000000	    -34.64373915	      2.42905051	    163.44462854	    -34.74506937	    -37.73477578	     36.43719726	      0.00000000	     82.54696224	     -4.37458665	   -209.04002037
     16.06666667	   -130.73232785	   -115.60931349	    -28.16974562	      0.13262194	      0.66648512	      0.24963838	    -17.18462343	     70.22677241	    -24.86743762	     94.46226699	   -169.26709069	    -71.90730137	      0.00000000	    -34.64476210	      2.42934693	    163.44323505	    -34.74726445	    -37.73407624	     36.43725754	      0.00000000	     82.54513880	     -4.37682281	   -209.04201324
     16.07500000	   -130.73118932	   -115.60992381	    -28.17059295	      0.13262671	      0.66649044	      0.24963653	    -17.18312861	     70.22553245	    -24.86983524	     94.45509345	   -169.26680707	    -71.90817018	      0.00000000	    -34.64686125	      2.42948184	    163.44239245	    -34.74964481	    -37.73358364	     36.43627061	      0.00000000	     82.54347965	     -4.37386079	   -209.04604036
     16.08333333	   -130.73114426	   -115.60974612	    -28.17051236	      0.13262872	      0.66648980	      0.24963855	    -17.18419001	     70.22540434	    -24.87101513	     94.45513119	   -169.26676970	    -71.90823793	      0.00000000	    -34.64586859	      2.42917020	    163.44227175	    -34.75009550	    -37.73367767	     36.43620790	      0.00000000	     82.54323080	     -4.37355574	   -209.04610819
     16.09166667	   -130.73095015	   -115.60988992	    -28.17044996	      0.13263010	      0.66648380	      0.24963912	    -17.18556718	     70.22514667	    -24.87238438	     94.45539525	   -169.26669843	    -71.90833394	      0.00000000	    -34.64584492	      2.42920151	    163.44161286	    -34.74940329	    -37.73356660	     36.43606849	      0.00000000	     82.54373739	     -4.37415978	   -209.04660956
     16.10000000	   -130.73081438	   -115.60984255	    -28.17060380	      0.13262069	      0.66648088	      0.24964233	    -17.18553579	     70.22521542	    -24.87234482	     94.45533073	   -169.26669147	    -71.90834154	      0.00000000	    -34.64591116	      2.42915207	    163.44155836	    -34.74932514	    -37.73354715	     36.43605788	      0.00000000	     82.54378341	     -4.37432842	   -209.04661196
     16.10833333	   -130.73041277	   -115.60999757	    -28.17050357	      0.13262351	      0.66647910	      0.24964276	    -17.18644406	     70.22541817	    -24.87331058	     94.45391434	   -169.26662448	    -71.90842288	      0.00000000	    -34.64623190	      2.42995656	    163.44168099	    -34.74829814	    -37.73322391	     36.43590184	      0.00000000	     82.54390840	     -4.37532119	   -209.04661749
     16.11666667	   -130.73236871	   -115.61095378	    -28.17444435	      0.13262980	      0.66648539	      0.24962866	    -17.18520511	     70.22295019	    -24.87991845	     94.44758332	   -169.26620413	    -71.90941134	      0.00000000	    -34.64453963	      2.42691303	    163.44537769	    -34.74181350	    -37.73192110	     36.43244702	      0.00000000	     82.54350256	     -4.37322569	   -209.05100199
     16.12500000	   -130.73162559	   -115.61098897	    -28.17461958	      0.13263178	      0.66648150	      0.24962405	    -17.18550664	     70.22196778	    -24.88059112	     94.44831270	   -169.26603857	    -71.90956364	      0.00000000	    -34.64415026	      2.42616762	    163.44530794	    -34.74251516	    -37.73193550	     36.43228845	      0.00000000	     82.54292616	     -4.37340893	   -209.05069550
     16.13333333	   -130.73145184	   -115.61155268	    -28.17405040	      0.13263161	      0.66648059	      0.24962261	    -17.18496030	     70.22187091	    -24.88060204	     94.44883842	   -169.26593129	    -71.90963461	      0.00000000	    -34.64484399	      2.42666507	    163.44525336	    -34.74245929	    -37.73181858	     36.43214454	      0.00000000	     82.54222769	     -4.37372479	   -209.05027595
     16.14166667	   -130.73191536	   -115.61072639	    -28.17357843	      0.13262476	      0.66647842	      0.24962602	    -17.18507896	     70.22212691	    -24.88073661	     94.44869634	   -169.26595792	    -71.90959993	      0.00000000	    -34.64493680	      2.42635415	    163.44505419	    -34.74249611	    -37.73180870	     36.43212422	      0.00000000	     82.54243990	     -4.37363431	   -209.05030449
     16.15000000	   -130.73182407	   -115.61081349	    -28.17363372	      0.13262478	      0.66647651	      0.24962292	    -17.18509539	     70.22205112	    -24.88079070	     94.44878682	   -169.26592427	    -71.90962570	      0.00000000	    -34.64485662	      2.42633045	    163.44501571	    -34.74257218	    -37.73179796	     36.43211887	      0.00000000	     82.54245250	     -4.37373476	   -209.05026238
